<?xml version="1.0" encoding="UTF-8"?>
<svg version="1.1" xmlns="http://www.w3.org/2000/svg" width="1024" height="1024">
<path d="M0 0 C1.93593819 1.17100241 3.87215348 2.34154679 5.80859375 3.51171875 C6.85515137 4.14899902 7.90170898 4.7862793 8.97998047 5.44287109 C14.6335748 8.86852807 20.32528726 12.2297372 26.01309204 15.59817505 C29.44271161 17.63030955 32.86963827 19.66697534 36.296875 21.703125 C59.31237921 35.38735351 59.31237921 35.38735351 82.38842773 48.96899414 C86.72974571 51.51377953 91.0459203 54.09975188 95.359375 56.69140625 C103.34714 61.49044358 111.35908441 66.24817764 119.375 71 C127.96922865 76.09464545 136.5551624 81.20207214 145.11880493 86.34799194 C150.3133107 89.4675976 155.52783826 92.55200365 160.75 95.625 C168.66993945 100.29379981 176.56110242 105.00816369 184.4375 109.75 C194.3825331 115.73453863 204.37931521 121.62597831 214.39840698 127.48519897 C222.05973741 131.96573866 229.70603645 136.46579542 237.30078125 141.05859375 C240.82450797 143.18108338 244.37087638 145.26456221 247.91796875 147.34765625 C249.73546211 148.4171667 251.55277713 149.48697965 253.37005615 150.55685425 C254.55998045 151.25619502 255.75074592 151.95410698 256.94244385 152.65042114 C281.966512 167.27453599 281.966512 167.27453599 285.375 177.5 C286.66127954 191.96145716 286.66127954 191.96145716 282.07641602 197.70507812 C276.12806652 203.98033505 267.30549505 207.95931698 259.90551758 212.24462891 C249.32148374 218.3771715 238.81277165 224.62202032 228.375 231 C218.86820351 236.8059855 209.30813209 242.5096265 199.6875 248.125 C189.77213941 253.91272818 179.89618657 259.76045048 170.06030273 265.68261719 C159.99901728 271.73713944 149.90127657 277.72955653 139.79956055 283.71630859 C132.79860206 287.86653461 125.80912455 292.03491189 118.83306885 296.22686768 C112.7382947 299.88709402 106.62028003 303.5076087 100.5 307.125 C91.71119944 312.32452081 82.93894835 317.55025624 74.1875 322.8125 C63.24236631 329.39362369 52.26426003 335.9180305 41.27685547 342.42822266 C34.94072424 346.18415027 28.61129141 349.94989476 22.30859375 353.76171875 C-16.10424049 376.98946618 -16.10424049 376.98946618 -31.20605469 373.98681641 C-37.71164235 372.27601685 -43.24927157 369.92114819 -49.0625 366.5625 C-49.92391602 366.07652344 -50.78533203 365.59054687 -51.67285156 365.08984375 C-59.135597 360.85180848 -66.4968032 356.44379867 -73.8359375 351.99609375 C-81.03031778 347.6395683 -88.26639461 343.35344001 -95.5 339.0625 C-96.90161361 338.23071674 -98.30322495 337.39892964 -99.70483398 336.56713867 C-108.30798632 331.46262474 -116.91646833 326.36718741 -125.53076172 321.28149414 C-132.15145239 317.37252854 -138.76692229 313.45479642 -145.38064575 309.53405762 C-163.2345135 298.95023959 -181.09905414 288.38589847 -199.00872803 277.89675903 C-207.76384663 272.76894803 -216.50698982 267.62142307 -225.23828125 262.453125 C-232.85494124 257.94780928 -240.4888089 253.47208911 -248.125 249 C-257.50172232 243.50857931 -266.86862876 238.00116083 -276.21850586 232.46411133 C-281.46166857 229.36164533 -286.71345463 226.27438628 -291.97265625 223.19921875 C-292.6107724 222.82592438 -293.24888855 222.45263 -293.90634155 222.06802368 C-297.033485 220.23880051 -300.16146695 218.41104256 -303.29101562 216.5859375 C-309.11678031 213.18353886 -314.92193608 209.74818436 -320.68359375 206.23828125 C-321.70638428 205.61606689 -322.7291748 204.99385254 -323.78295898 204.3527832 C-331.71884039 199.17922389 -331.71884039 199.17922389 -333.875 194.4375 C-334.34679687 193.43009766 -334.34679687 193.43009766 -334.828125 192.40234375 C-337.59949941 185.78636661 -336.8267584 180.34318974 -334.671875 173.7109375 C-332.09959586 168.27843752 -328.22910057 165.26522955 -323.1875 162.25 C-322.51428711 161.8379834 -321.84107422 161.4259668 -321.14746094 161.00146484 C-312.67468246 155.8542611 -304.09521905 150.8792953 -295.53344727 145.88183594 C-288.53730016 141.79814421 -281.55997294 137.68702924 -274.625 133.5 C-266.39509582 128.53390324 -258.10926369 123.66567311 -249.8125 118.8125 C-241.28117597 113.82197682 -232.76407848 108.81234203 -224.30078125 103.70703125 C-218.74397512 100.3611477 -213.15117267 97.07570719 -207.56494141 93.77929688 C-201.34689697 90.10963131 -195.13453771 86.43055123 -188.92553711 82.74560547 C-177.00925636 75.674558 -165.06884001 68.64615351 -153.11108398 61.64550781 C-145.06695264 56.93549216 -137.03597305 52.20376573 -129.01489258 47.45458984 C-123.85834477 44.40386479 -118.69454145 41.36582674 -113.5234375 38.33984375 C-112.90882156 37.98018524 -112.29420563 37.62052673 -111.66096497 37.24996948 C-110.40501361 36.51506773 -109.14905756 35.78017399 -107.89309692 35.04528809 C-98.17415463 29.35803122 -88.47498033 23.64165783 -78.83007812 17.8293457 C-71.68075307 13.52296194 -64.49748209 9.27513449 -57.30688477 5.03808594 C-56.45022217 4.5330957 -55.59355957 4.02810547 -54.7109375 3.5078125 C-53.87272461 3.01458496 -53.03451172 2.52135742 -52.17089844 2.01318359 C-50.41701347 0.97074219 -48.67064198 -0.08441025 -46.93066406 -1.14990234 C-46.05893555 -1.68309082 -45.18720703 -2.2162793 -44.2890625 -2.765625 C-43.12431396 -3.48540527 -43.12431396 -3.48540527 -41.93603516 -4.21972656 C-27.39851583 -12.2732604 -13.31053248 -8.24506819 0 0 Z " fill="#999999" transform="translate(532.625,125.5)"/>
<path d="M0 0 C2.64801549 1.40711076 5.23144562 2.91151215 7.8125 4.4375 C8.6694043 4.9423291 9.52630859 5.4471582 10.40917969 5.96728516 C15.59143328 9.03537221 20.7492954 12.14234375 25.8984375 15.265625 C33.05831065 19.60133736 40.27324181 23.83949041 47.5 28.0625 C49.95324323 29.49719373 52.40630582 30.93219621 54.859375 32.3671875 C55.45293793 32.71431793 56.04650085 33.06144836 56.65805054 33.4190979 C64.84717945 38.21006596 73.01070971 43.04432426 81.17529297 47.87695312 C84.79884243 50.02116051 88.42380281 52.16297643 92.04882812 54.3046875 C94.79442567 55.92682146 97.53979163 57.54934687 100.28515625 59.171875 C104.04215299 61.39200961 107.80007542 63.61056736 111.55859375 65.828125 C112.51185547 66.39080078 113.46511719 66.95347656 114.44726562 67.53320312 C116.22825711 68.58442249 118.00948052 69.63524908 119.79101562 70.68554688 C124.87089635 73.68460757 129.93563796 76.70793571 134.9921875 79.74609375 C142.13753616 84.03909549 149.30270034 88.29807748 156.47338867 92.54858398 C166.69670252 98.60917035 176.91194152 104.68211945 187.09448242 110.81103516 C192.76626334 114.22051909 198.45505912 117.60057535 204.14877319 120.97323608 C216.25294767 128.14315983 228.35159699 135.3220998 240.39038086 142.60147095 C242.1267754 143.65080311 243.86511145 144.69692044 245.60351562 145.74291992 C259.40830851 154.11442159 271.86490554 161.66846356 276.84729958 177.78470135 C278.25036728 183.52283123 278.09535875 189.25599211 278.07992554 195.13227844 C278.08445665 196.4013374 278.08898776 197.67039636 278.09365618 198.97791165 C278.1058435 202.48451598 278.10563079 205.9910246 278.10326743 209.49764526 C278.10285818 213.28576799 278.11390863 217.07386047 278.12338257 220.86196899 C278.13996973 228.27745364 278.14549107 235.69290648 278.14660732 243.10840813 C278.14755881 249.13787612 278.15167415 255.16733365 278.15800858 261.19679832 C278.1756142 278.30378749 278.18484843 295.41075159 278.18334763 312.51774988 C278.18326772 313.43929232 278.1831878 314.36083476 278.18310547 315.31030273 C278.18302371 316.2329745 278.18294195 317.15564627 278.18285771 318.10627779 C278.18204484 333.05869022 278.20118446 348.01100191 278.2293822 362.9633852 C278.25812889 378.32847737 278.27192154 393.69352044 278.27019465 409.05864018 C278.2695314 417.68015658 278.27499526 426.30156734 278.29655075 434.92305946 C278.31478598 442.26338503 278.31909065 449.60355706 278.3055319 456.9438955 C278.29901422 460.68608875 278.29884127 464.42798764 278.3162384 468.17015266 C278.33493723 472.23424666 278.32238363 476.29766288 278.30697632 480.36177063 C278.31726344 481.53435734 278.32755057 482.70694404 278.33814943 483.91506368 C278.27214567 491.81106523 277.49489922 500.28687386 272.03318155 506.44306356 C267.32706253 510.70133448 263.22264025 512.74896646 256.8125 512.9375 C255.78125 512.9890625 254.75 513.040625 253.6875 513.09375 C243.72640092 511.40678967 234.68877004 504.70688971 226.1875 499.5 C217.45549034 494.2040519 208.6740276 489.01372815 199.8125 483.9375 C190.27406234 478.466329 180.81849585 472.87341907 171.40258789 467.19433594 C163.55278222 462.46575816 155.66162187 457.81148309 147.75 453.1875 C137.37313382 447.12120945 127.01984663 441.0168293 116.6875 434.875 C116.0180838 434.47710266 115.3486676 434.07920532 114.65896606 433.66925049 C111.98475907 432.07958726 109.31064794 430.48976301 106.63670349 428.8996582 C96.72595393 423.00650189 86.80495968 417.13062596 76.88330078 411.25585938 C74.88932699 410.07513774 72.89550314 408.89416283 70.90185547 407.71289062 C60.51928937 401.5615943 50.11840837 395.44399776 39.6875 389.375 C31.51134838 384.61664594 23.37090208 379.80479762 15.27148438 374.91699219 C10.87410976 372.26547789 6.46351925 369.63972308 2.03125 367.046875 C0.56969482 366.19041382 0.56969482 366.19041382 -0.92138672 365.31665039 C-2.78031609 364.22895223 -4.6411677 363.14452906 -6.50439453 362.06420898 C-18.53251339 355.01897411 -29.77700182 348.37015065 -34.1875 334.4375 C-35.40162062 327.96865024 -35.32991855 321.56747892 -35.32121277 315.00137329 C-35.32347833 313.74809183 -35.32574388 312.49481038 -35.32807809 311.2035507 C-35.33417879 307.73645186 -35.33406454 304.2693772 -35.33288372 300.80227423 C-35.33267927 297.05849176 -35.33820258 293.31471698 -35.34294128 289.57093811 C-35.35123863 282.24088179 -35.3539957 274.91083351 -35.35455366 267.58077289 C-35.3550292 261.62182407 -35.35708586 255.66287789 -35.36025429 249.7039299 C-35.36905793 232.80225534 -35.37367405 215.90058713 -35.37292381 198.99891026 C-35.37288386 198.08822495 -35.3728439 197.17753965 -35.37280273 196.23925781 C-35.37276185 195.32745838 -35.37272097 194.41565895 -35.37267885 193.47622924 C-35.37227234 178.69703066 -35.38184392 163.91785755 -35.3959411 149.13866635 C-35.41030804 133.95668286 -35.41721113 118.7747118 -35.41634732 103.59272134 C-35.41601549 95.07189061 -35.41875666 86.5510866 -35.42952538 78.03026199 C-35.43863449 70.77626084 -35.4408022 63.52229851 -35.43401595 56.26829411 C-35.43075299 52.56896654 -35.43068602 48.86971345 -35.4393692 45.17039299 C-35.44869471 41.15607041 -35.44245245 37.14191997 -35.43473816 33.12759399 C-35.43988172 31.96406328 -35.44502529 30.80053256 -35.45032471 29.60174334 C-35.40606822 19.17944892 -34.37413709 10.42780403 -27.1875 2.4375 C-19.01344438 -4.50640072 -9.41413572 -4.46479231 0 0 Z " fill="#898989" transform="translate(196.1875,390.5625)"/>
<path d="M0 0 C5.62005805 5.74778664 7.8692335 12.23944122 7.88422108 20.19064331 C7.88867892 21.28847672 7.89313676 22.38631014 7.89772969 23.51741123 C7.89745315 25.3261291 7.89745315 25.3261291 7.89717102 27.17138672 C7.90084771 28.45265662 7.9045244 29.73392653 7.9083125 31.05402279 C7.91832407 34.61331535 7.92204795 38.17259104 7.92470181 41.73189569 C7.92860744 45.56986217 7.9381857 49.40781534 7.94691467 53.24577332 C7.96667327 62.51676712 7.97674519 71.78776201 7.98564246 81.05877161 C7.99002695 85.42654141 7.9953934 89.79431001 8.00063133 94.16207886 C8.01764412 108.68537647 8.03213725 123.20867333 8.03938007 137.73197937 C8.04128992 141.50051881 8.04321026 145.26905824 8.04516602 149.03759766 C8.04564976 149.97423158 8.0461335 150.9108655 8.0466319 151.87588227 C8.05492827 167.04126333 8.08025833 182.20656541 8.11274669 197.371912 C8.14584277 212.9481891 8.1638312 228.52442609 8.16702431 244.10073853 C8.16918721 252.84363705 8.17790337 261.58642046 8.20348549 270.32928467 C8.22522745 277.77690159 8.23322581 285.22437543 8.22351871 292.67202049 C8.2189839 296.46899642 8.22081198 300.26567735 8.24028015 304.06261253 C8.26124805 308.18786226 8.25089474 312.31246212 8.23774719 316.43774414 C8.25420106 318.21969335 8.25420106 318.21969335 8.27098733 320.03764153 C8.20352083 328.83328418 6.95969848 338.14093185 1.375 345.29296875 C-8.57074145 354.83910452 -21.8386972 361.170911 -33.69995117 368.06176758 C-42.55298943 373.2077649 -51.32625358 378.47090424 -60.0625 383.8125 C-67.64790139 388.44740136 -75.24888851 393.01536581 -83.04077148 397.29638672 C-89.68443839 400.98317594 -96.14372657 404.97514468 -102.625 408.9375 C-112.88432509 415.20858703 -123.22538964 421.30755345 -133.66064453 427.28320312 C-143.26615249 432.79376982 -152.75779914 438.4834912 -162.2421875 444.19921875 C-169.6508641 448.66269138 -177.10020783 453.05619511 -184.55078125 457.44921875 C-189.68188682 460.47474908 -194.80508889 463.51347332 -199.92749023 466.55371094 C-211.83445449 473.61974065 -223.76311193 480.64743947 -235.71557617 487.63623047 C-241.39704715 490.95947191 -247.07088778 494.29431111 -252.72265625 497.66796875 C-253.72385498 498.26456299 -254.72505371 498.86115723 -255.7565918 499.47583008 C-257.60270177 500.5774623 -259.44678601 501.68250008 -261.28833008 502.79174805 C-269.62106432 507.75995358 -276.29560071 511.0747293 -286.25 509.8125 C-292.42784585 508.02920429 -296.76722189 504.14758367 -300.25 498.8125 C-302.54246486 494.32621122 -302.54013725 490.02807799 -302.5284729 485.1005249 C-302.5342653 484.22235367 -302.5400577 483.34418244 -302.54602563 482.43939996 C-302.56304031 479.49309146 -302.5659043 476.54693962 -302.56884766 473.60058594 C-302.57815021 471.48499164 -302.58831937 469.36940101 -302.59928894 467.2538147 C-302.62670483 461.48026902 -302.64179554 455.70674801 -302.65471697 449.93315411 C-302.67045292 443.81040951 -302.69725533 437.68771278 -302.7227478 431.56500244 C-302.76436638 421.20090195 -302.7987717 410.83679845 -302.828125 400.47265625 C-302.86865027 386.1664494 -302.92155025 371.86031056 -302.97736406 357.5541563 C-303.06921321 333.88598305 -303.14196747 310.21780783 -303.19766617 286.5495224 C-303.22668446 274.30664399 -303.26170291 262.06383412 -303.30932724 249.82101321 C-303.33902963 242.0918849 -303.36184405 234.36275925 -303.37856185 226.63359189 C-303.38816029 222.29179968 -303.40089446 217.95008038 -303.42247391 213.60832977 C-303.4419722 209.66791266 -303.45200081 205.72758715 -303.4545846 201.78712368 C-303.4571258 200.38308101 -303.46302691 198.97903896 -303.47285986 197.57502842 C-303.58463309 181.00688046 -302.11403201 167.9888347 -290.25 155.8125 C-288.01332223 153.98125822 -285.64547052 152.45456209 -283.1875 150.9375 C-282.47996582 150.48971191 -281.77243164 150.04192383 -281.04345703 149.58056641 C-271.90392845 143.86385484 -262.56012863 138.47040099 -253.23910522 133.05632019 C-247.11412696 129.49850956 -241.02125794 125.89232871 -234.95228577 122.23979187 C-230.47324826 119.54435513 -225.98458624 116.86574971 -221.48828125 114.19921875 C-220.84435425 113.81731384 -220.20042725 113.43540894 -219.5369873 113.04193115 C-218.22108282 112.26166806 -216.90512366 111.48149719 -215.58911133 110.70141602 C-205.36579748 104.64082965 -195.15055848 98.56788055 -184.96801758 92.43896484 C-179.95787505 89.42721233 -174.93573013 86.43633216 -169.90625 83.45703125 C-168.92090271 82.87327477 -168.92090271 82.87327477 -167.91564941 82.27772522 C-167.24674683 81.88145432 -166.57784424 81.48518341 -165.88867188 81.0769043 C-164.50910457 80.25961976 -163.12954736 79.44231819 -161.75 78.625 C-160.72241577 78.0162352 -160.72241577 78.0162352 -159.67407227 77.39517212 C-149.99466523 71.6582218 -140.35570539 65.85941806 -130.75 60 C-121.26178782 54.21277041 -111.71214185 48.54345997 -102.09765625 42.96826172 C-95.11213437 38.91300918 -88.17037211 34.79038701 -81.25 30.625 C-72.065969 25.09830702 -62.86888112 19.59450103 -53.65454102 14.11849976 C-52.28675884 13.30549619 -50.91923485 12.49205805 -49.55200195 11.6781311 C-45.12553255 9.04336391 -40.69185711 6.42124178 -36.25 3.8125 C-35.27906403 3.24097198 -35.27906403 3.24097198 -34.28851318 2.65789795 C-32.3766608 1.53563473 -30.46060192 0.42094434 -28.54296875 -0.69140625 C-27.42817139 -1.34052979 -26.31337402 -1.98965332 -25.16479492 -2.65844727 C-16.34392943 -7.28572598 -7.94056187 -5.34460895 0 0 Z " fill="#474949" transform="translate(844.25,393.1875)"/>
<path d="M0 0 C1.69842003 2.96579437 2.2491611 5.0780623 2.24291992 8.48486328 C2.2459613 9.39721741 2.24900269 10.30957153 2.25213623 11.24957275 C2.24498596 12.26291687 2.23783569 13.27626099 2.23046875 14.3203125 C2.23032776 15.42227966 2.23018677 16.52424683 2.2300415 17.65960693 C2.22678456 20.80341442 2.21387688 23.94702301 2.19703293 27.09078217 C2.18405668 29.85976414 2.17939591 32.62873909 2.17440128 35.39774513 C2.13707095 54.68913244 1.96129435 73.97933907 1.77100372 93.2697258 C1.67023988 103.4885458 1.57197978 113.70739016 1.47499084 123.92624664 C1.44997685 126.56086612 1.42481996 129.19548425 1.39952087 131.83010101 C0.95218711 178.69972583 1.12910456 225.5378265 1.78382683 272.40413284 C2.00519322 288.27047244 2.06877064 304.13220311 2 320 C1.01 319.67 0.02 319.34 -1 319 C-1.0228816 279.22778193 -1.04050599 239.45556471 -1.05106533 199.68334138 C-1.05231606 194.98941507 -1.05361038 190.29548878 -1.05493164 185.6015625 C-1.05519395 184.66707394 -1.05545626 183.73258538 -1.05572652 182.76977898 C-1.06007955 167.63245866 -1.06796509 152.49514214 -1.0771528 137.35782407 C-1.08649952 121.82916493 -1.09205778 106.30050778 -1.09408849 90.77184594 C-1.0954616 81.18743456 -1.09980074 71.60303389 -1.10791647 62.01862581 C-1.11319648 55.44903722 -1.11480142 48.87945417 -1.11350138 42.30986361 C-1.11285997 38.51781398 -1.11385332 34.72578311 -1.11920547 30.9337368 C-1.12496388 26.82388473 -1.12299092 22.71407271 -1.12025452 18.60421753 C-1.12316736 17.40382776 -1.1260802 16.20343799 -1.12908131 14.96667278 C-1.12709026 13.86442367 -1.12509921 12.76217457 -1.12304783 11.62652397 C-1.12342755 10.67798259 -1.12380727 9.7294412 -1.1241985 8.75215614 C-0.98966454 5.77097311 -0.54497913 2.93167451 0 0 Z " fill="#A1A1A1" transform="translate(163,406)"/>
<path d="M0 0 C0.33 0 0.66 0 1 0 C1.09160652 39.92485359 1.16206461 79.84969345 1.20426132 119.77463119 C1.20926399 124.49086758 1.2144413 129.20710376 1.21972656 133.92333984 C1.2207758 134.86223577 1.22182505 135.8011317 1.22290608 136.76847902 C1.24029919 151.9599749 1.27183085 167.15141007 1.30861118 182.34286997 C1.34605106 197.93709525 1.36824229 213.5312888 1.37635398 229.12555718 C1.38183543 238.74380169 1.39913218 248.3618746 1.43166587 257.98006627 C1.45285137 264.58055237 1.45919092 271.18095009 1.45400551 277.78146771 C1.45144999 281.58652262 1.45529656 285.39127819 1.4768219 289.19627953 C1.5000376 293.3304892 1.49191577 297.4640672 1.48101807 301.59832764 C1.49266943 302.78902225 1.5043208 303.97971687 1.51632524 305.20649314 C1.46120189 312.96650081 0.31568213 319.91317781 -3 327 C-3.66 327.33 -4.32 327.66 -5 328 C-5.33 325.69 -5.66 323.38 -6 321 C-4.68 320.67 -3.36 320.34 -2 320 C-1.05530267 312.32731797 -0.84820092 304.75372694 -0.84178162 297.02865601 C-0.83684364 295.75421053 -0.83190566 294.47976505 -0.82681805 293.16670001 C-0.81333936 289.65480879 -0.80584867 286.14292716 -0.79939139 282.63101697 C-0.79134188 278.83428159 -0.77765998 275.03756587 -0.76467896 271.24084473 C-0.74298038 264.67122391 -0.7248119 258.10160104 -0.70907402 251.53196335 C-0.68631483 242.03349199 -0.65818056 232.53504246 -0.62875474 223.0365897 C-0.58115276 207.62417493 -0.53786867 192.21175121 -0.49731445 176.79931641 C-0.45792182 161.83186141 -0.41648662 146.86441435 -0.37231445 131.89697266 C-0.36959018 130.97363126 -0.36686591 130.05028987 -0.36405908 129.09896843 C-0.35037898 124.46661259 -0.33665883 119.83425686 -0.32291877 115.2019012 C-0.20907022 76.80128401 -0.10223531 38.40064975 0 0 Z " fill="#292A2A" transform="translate(851,408)"/>
<path d="M0 0 C1.77765986 3.06835754 2.24892405 5.2706739 2.24291992 8.80224609 C2.24595627 9.77784988 2.24899261 10.75345367 2.25212097 11.75862122 C2.24497574 12.83601059 2.23783051 13.91339996 2.23046875 15.0234375 C2.23037308 16.18457565 2.2302774 17.34571381 2.23017883 18.54203796 C2.22704016 21.79774756 2.21438151 25.05325671 2.19723511 28.308918 C2.18417803 31.08002103 2.17863476 33.85112065 2.17279625 36.62224674 C2.07235487 81.41567138 1.49503807 126.20959966 1 171 C0.67 171 0.34 171 0 171 C-1.0470757 137.84580486 -1.15734486 104.69920875 -1.12856841 71.53213263 C-1.12418411 65.87442457 -1.12736378 60.21673843 -1.1321975 54.55903172 C-1.13673505 49.02182853 -1.13737893 43.48463483 -1.13475883 37.94743037 C-1.13321199 34.67486002 -1.1333622 31.40230776 -1.13629532 28.12973785 C-1.13882998 24.52169094 -1.1349743 20.91370632 -1.12939453 17.30566406 C-1.13141876 16.24307877 -1.13344299 15.18049347 -1.13552856 14.08570862 C-1.12172907 9.27764492 -1.01368457 4.7260001 0 0 Z " fill="#C2C2C2" transform="translate(163,406)"/>
<path d="M0 0 C8.0429376 2.513418 13.64560393 8.006576 18 15 C20.00254857 21.00764572 20.14520273 28.44149201 18.19921875 34.48828125 C15.10248447 39.96875601 10.30608359 42.87099722 5 46 C3.5200709 46.95715551 2.04085416 47.91541375 0.5625 48.875 C-2.74528302 51 -2.74528302 51 -5 51 C-3.84803402 47.54410205 -2.7732186 46.32350747 0 44 C1.97888961 43.27306096 3.97954558 42.60183749 6 42 C6.99 41.34 7.98 40.68 9 40 C9.12375 39.175 9.2475 38.35 9.375 37.5 C9.58125 36.675 9.7875 35.85 10 35 C11.2065625 34.6596875 11.2065625 34.6596875 12.4375 34.3125 C15.16743726 33.27555186 15.16743726 33.27555186 15.80859375 30.87109375 C16.84147816 26.0913321 17.50636329 21.75083806 16 17 C14.56308045 15.14198761 14.56308045 15.14198761 13 14 C12.01 14.495 12.01 14.495 11 15 C10.87625 14.443125 10.7525 13.88625 10.625 13.3125 C9.94023145 10.77885636 9.00866237 8.42078968 8 6 C6.02 6 4.04 6 2 6 C1.34 4.02 0.68 2.04 0 0 Z " fill="#4A4B4A" transform="translate(799,285)"/>
<path d="M0 0 C0.5775 0.185625 1.155 0.37125 1.75 0.5625 C4.20692525 1.04023546 5.64397534 0.75729364 8 0 C2.77229007 4.35814306 -2.96705015 7.73296812 -8.80297852 11.19262695 C-10.69748061 12.31843096 -12.58406956 13.45677442 -14.47070312 14.59570312 C-15.67141286 15.31067251 -16.87256912 16.02489267 -18.07421875 16.73828125 C-19.16307373 17.38837158 -20.25192871 18.03846191 -21.3737793 18.70825195 C-22.67375854 19.34766724 -22.67375854 19.34766724 -24 20 C-24.66 19.67 -25.32 19.34 -26 19 C-24.625 17.5 -24.625 17.5 -23 16 C-22.34 16 -21.68 16 -21 16 C-21.061875 15.236875 -21.12375 14.47375 -21.1875 13.6875 C-21 11 -21 11 -19.5 9.1875 C-19.005 8.795625 -18.51 8.40375 -18 8 C-17.01 8.33 -16.02 8.66 -15 9 C-9.81480128 8.25925733 -5.07007945 6.17983118 -1.5625 2.3125 C-1.046875 1.549375 -0.53125 0.78625 0 0 Z " fill="#595B5A" transform="translate(744,361)"/>
<path d="M0 0 C0.66 0.99 1.32 1.98 2 3 C-1.52038006 5.14184935 -5.04418406 7.27793345 -8.57128906 9.40869141 C-9.77114287 10.13464519 -10.97004241 10.86217859 -12.16796875 11.59130859 C-13.88811711 12.63792204 -15.61197647 13.67842869 -17.3359375 14.71875 C-18.37282715 15.34716797 -19.4097168 15.97558594 -20.47802734 16.62304688 C-23 18 -23 18 -25 18 C-25 17.01 -25 16.02 -25 15 C-22.11165997 12.89229241 -20.61537605 12 -17 12 C-17 11.34 -17 10.68 -17 10 C-15.35 9.67 -13.7 9.34 -12 9 C-11.67 7.02 -11.34 5.04 -11 3 C-9.02 3.66 -7.04 4.32 -5 5 C-5 4.34 -5 3.68 -5 3 C-2.5 1.375 -2.5 1.375 0 0 Z " fill="#616161" transform="translate(708,384)"/>
<path d="M0 0 C6.67122371 2.08475741 13.37247404 7.00669624 17 13 C16.75 15.3125 16.75 15.3125 16 17 C15.01 16.01 14.02 15.02 13 14 C12.01 14.495 12.01 14.495 11 15 C10.87625 14.443125 10.7525 13.88625 10.625 13.3125 C9.94023145 10.77885636 9.00866237 8.42078968 8 6 C6.02 6 4.04 6 2 6 C1.34 4.02 0.68 2.04 0 0 Z " fill="#515151" transform="translate(799,285)"/>
<path d="M0 0 C0.8971875 0.309375 0.8971875 0.309375 1.8125 0.625 C-1.70788006 2.76684935 -5.23168406 4.90293345 -8.75878906 7.03369141 C-9.95864287 7.75964519 -11.15754241 8.48717859 -12.35546875 9.21630859 C-14.07561711 10.26292204 -15.79947647 11.30342869 -17.5234375 12.34375 C-18.56032715 12.97216797 -19.5972168 13.60058594 -20.66552734 14.24804688 C-23.1875 15.625 -23.1875 15.625 -25.1875 15.625 C-25.1875 14.965 -25.1875 14.305 -25.1875 13.625 C-24.383125 13.356875 -23.57875 13.08875 -22.75 12.8125 C-21.904375 12.420625 -21.05875 12.02875 -20.1875 11.625 C-19.8575 10.635 -19.5275 9.645 -19.1875 8.625 C-16.90573201 7.31488001 -14.6903617 6.16599869 -12.3125 5.0625 C-1.22880435 -0.21065217 -1.22880435 -0.21065217 0 0 Z " fill="#515151" transform="translate(782.1875,342.375)"/>
<path d="M0 0 C4.3177458 0.50797009 8.03302114 1.19682779 12 3 C11.67 4.32 11.34 5.64 11 7 C11.66 7 12.32 7 13 7 C13 7.66 13 8.32 13 9 C13.99 9 14.98 9 16 9 C16 9.66 16 10.32 16 11 C11.95698825 9.51481201 8.38853744 7.57122002 4.6875 5.375 C3.08455078 4.42753906 3.08455078 4.42753906 1.44921875 3.4609375 C0.64097656 2.97882812 -0.16726563 2.49671875 -1 2 C-0.67 1.34 -0.34 0.68 0 0 Z " fill="#4D4F4E" transform="translate(383,864)"/>
<path d="M0 0 C0 0.66 0 1.32 0 2 C-0.66 2 -1.32 2 -2 2 C-2 2.66 -2 3.32 -2 4 C-5.6441774 6.4294516 -7.71241272 6.16179575 -12 6 C-10.95902262 3.2556051 -10.02715813 2.0212861 -7.6875 0.1875 C-4.5761278 -1.18729237 -3.19123321 -1.00295901 0 0 Z " fill="#B5B5B5" transform="translate(254,265)"/>
<path d="M0 0 C1.98 0 3.96 0 6 0 C6.33 1.32 6.66 2.64 7 4 C7.680625 4.103125 8.36125 4.20625 9.0625 4.3125 C12.65694548 5.1537532 15.72148982 6.29769664 19 8 C19.9375 10.1875 19.9375 10.1875 20 12 C15.37909884 10.35800988 11.36156215 7.9659032 7.1875 5.4375 C6.49462891 5.02564453 5.80175781 4.61378906 5.08789062 4.18945312 C3.37298683 3.15713173 1.68380945 2.08229765 0 1 C0 0.67 0 0.34 0 0 Z " fill="#3D3D3D" transform="translate(416,885)"/>
<path d="M0 0 C5.70629354 0.42797202 9.41078616 2.84345952 14 6 C13.67 6.99 13.34 7.98 13 9 C11.2421875 7.92578125 9.484375 6.8515625 7.7265625 5.77734375 C6.87191406 5.39255859 6.87191406 5.39255859 6 5 C5.01 5.495 5.01 5.495 4 6 C2.68 4.02 1.36 2.04 0 0 Z " fill="#979797" transform="translate(210,401)"/>
<path d="M0 0 C0.33 0.66 0.66 1.32 1 2 C3.02463255 2.65213292 3.02463255 2.65213292 5 3 C3.04480616 4.17192047 1.0857461 5.3373929 -0.875 6.5 C-1.96554687 7.1496875 -3.05609375 7.799375 -4.1796875 8.46875 C-7 10 -7 10 -9 10 C-7.98305687 6.94917061 -7.27855788 6.09627325 -5 4 C-4.34 3.34 -3.68 2.68 -3 2 C-3 2.66 -3 3.32 -3 4 C-2.34 3.67 -1.68 3.34 -1 3 C-0.67 2.01 -0.34 1.02 0 0 Z " fill="#2E2F30" transform="translate(668,840)"/>
<path d="M0 0 C4.42323682 0.58265272 7.5155864 2.26766211 11.3125 4.5625 C12.38113281 5.20316406 13.44976562 5.84382813 14.55078125 6.50390625 C15.35902344 6.99761719 16.16726563 7.49132812 17 8 C16.34 8.66 15.68 9.32 15 10 C15 9.34 15 8.68 15 8 C14.01 8.33 13.02 8.66 12 9 C7.71133329 6.85566665 3.83822765 3.85985589 0 1 C0 0.67 0 0.34 0 0 Z " fill="#797979" transform="translate(288,447)"/>
<path d="M0 0 C0 1.32 0 2.64 0 4 C-2.93720508 5.52299523 -5.9168649 6.80100302 -9 8 C-8.66896829 4.93795671 -8.39949096 3.39949096 -6.1875 1.1875 C-4 0 -4 0 0 0 Z " fill="#B5B5B5" transform="translate(176,391)"/>
<path d="M0 0 C0.5775 0.185625 1.155 0.37125 1.75 0.5625 C4.20692525 1.04023546 5.64397534 0.75729364 8 0 C3.22486164 4.28115853 -2.36156231 7.03759841 -8 10 C-8 9.01 -8 8.02 -8 7 C-7.13375 6.6596875 -7.13375 6.6596875 -6.25 6.3125 C-3.4336339 4.66961977 -1.91922886 2.60466773 0 0 Z " fill="#4D4D4D" transform="translate(744,361)"/>
<path d="M0 0 C-2.119212 1.36405618 -4.24448118 2.71631775 -6.375 4.0625 C-6.97828125 4.45244141 -7.5815625 4.84238281 -8.203125 5.24414062 C-9.76492557 6.22460432 -11.37992214 7.11916075 -13 8 C-13.66 7.67 -14.32 7.34 -15 7 C-13.6875 5 -13.6875 5 -12 3 C-11.01 3 -10.02 3 -9 3 C-8.67 2.01 -8.34 1.02 -8 0 C-4.99093136 -1.24513185 -3.0590674 -0.84653438 0 0 Z " fill="#595959" transform="translate(646,425)"/>
<path d="M0 0 C-2.1217363 1.33878572 -4.24705188 2.67115476 -6.375 4 C-6.97828125 4.3815625 -7.5815625 4.763125 -8.203125 5.15625 C-12.7734375 8 -12.7734375 8 -15 8 C-15 7.01 -15 6.02 -15 5 C-12.11165997 2.89229241 -10.61537605 2 -7 2 C-7 1.34 -7 0.68 -7 0 C-3.86650268 -1.04449911 -3.01031744 -0.93423645 0 0 Z " fill="#535353" transform="translate(698,394)"/>
<path d="M0 0 C0.33 0 0.66 0 1 0 C1.45164525 7.11341265 0.32797915 11.71546794 -3 18 C-5 15 -5 15 -4.625 12.3125 C-4.41875 11.549375 -4.2125 10.78625 -4 10 C-3.01 10 -2.02 10 -1 10 C-0.67 6.7 -0.34 3.4 0 0 Z " fill="#2C2D2D" transform="translate(850,718)"/>
<path d="M0 0 C0 1.98 0 3.96 0 6 C-0.556875 5.608125 -1.11375 5.21625 -1.6875 4.8125 C-2.8321875 4.4103125 -2.8321875 4.4103125 -4 4 C-6.74832154 5.28184562 -6.74832154 5.28184562 -9 7 C-9 5.68 -9 4.36 -9 3 C-5.69865082 0.43228397 -4.27125508 0 0 0 Z " fill="#AEAEAE" transform="translate(265,257)"/>
<path d="M0 0 C3.99331229 2.66220819 7.6895147 5.51527864 11 9 C7.32965255 9 5.9000569 7.9247108 2.8125 6 C1.91144531 5.443125 1.01039063 4.88625 0.08203125 4.3125 C-0.60503906 3.879375 -1.29210937 3.44625 -2 3 C-1.34 2.67 -0.68 2.34 0 2 C0 1.34 0 0.68 0 0 Z " fill="#454645" transform="translate(352,844)"/>
<path d="M0 0 C0.33 0.66 0.66 1.32 1 2 C2.65 2 4.3 2 6 2 C6.33 2.99 6.66 3.98 7 5 C8.49985609 6.66710346 8.49985609 6.66710346 10 8 C9.01 8.495 9.01 8.495 8 9 C5.6171875 7.78515625 5.6171875 7.78515625 2.875 6.0625 C1.96492188 5.49660156 1.05484375 4.93070313 0.1171875 4.34765625 C-0.58148438 3.90292969 -1.28015625 3.45820312 -2 3 C-1.34 2.67 -0.68 2.34 0 2 C0 1.34 0 0.68 0 0 Z " fill="#4B4B4B" transform="translate(321,826)"/>
<path d="M0 0 C5.24099655 0.41105855 8.24039194 1.24039194 12 5 C12 5.66 12 6.32 12 7 C7.69235185 5.43358249 3.93828536 3.31663844 0 1 C0 0.67 0 0.34 0 0 Z " fill="#464746" transform="translate(370,858)"/>
<path d="M0 0 C-0.33 0.66 -0.66 1.32 -1 2 C-1.66 2 -2.32 2 -3 2 C-3.33 2.99 -3.66 3.98 -4 5 C-5.65 5.33 -7.3 5.66 -9 6 C-7.01260984 0.46369883 -5.82303895 -0.15323787 0 0 Z M-10 6 C-9.01 6.495 -9.01 6.495 -8 7 C-8.33 7.66 -8.66 8.32 -9 9 C-9.33 8.01 -9.66 7.02 -10 6 Z " fill="#A7A7A7" transform="translate(449,149)"/>
<path d="M0 0 C2.33944736 0.28730055 4.6739143 0.61936779 7 1 C4.63202009 3.61724095 2.10399646 5.32861729 -1 7 C-1.66 7 -2.32 7 -3 7 C-3 6.34 -3 5.68 -3 5 C-2.01 5 -1.02 5 0 5 C-0.2784375 4.0409375 -0.2784375 4.0409375 -0.5625 3.0625 C-0.706875 2.381875 -0.85125 1.70125 -1 1 C-0.67 0.67 -0.34 0.34 0 0 Z " fill="#5A5A5A" transform="translate(538,483)"/>
<path d="M0 0 C3.59391114 1.33488128 6.75490696 2.96022723 10 5 C9.34 5.66 8.68 6.32 8 7 C5.525 6.01 5.525 6.01 3 5 C3 4.34 3 3.68 3 3 C1.68 3 0.36 3 -1 3 C-0.67 2.01 -0.34 1.02 0 0 Z " fill="#4B4B4B" transform="translate(789,279)"/>
<path d="M0 0 C1.60781893 0.7631861 3.21113138 1.53587058 4.8125 2.3125 C5.70582031 2.74175781 6.59914063 3.17101562 7.51953125 3.61328125 C9.78931933 4.88221789 11.29248171 6.06556898 13 8 C10.50907189 9.24546405 9.58919267 8.7767578 7 8 C7 7.01 7 6.02 7 5 C6.21625 4.9175 5.4325 4.835 4.625 4.75 C2 4 2 4 0.8359375 1.953125 C0.56007813 1.30859375 0.28421875 0.6640625 0 0 Z " fill="#4C4C4C" transform="translate(776,271)"/>
<path d="M0 0 C2.25 0.25 2.25 0.25 4 1 C3.6875 2.9375 3.6875 2.9375 3 5 C0 6 0 6 -2.1875 5.0625 C-2.785625 4.711875 -3.38375 4.36125 -4 4 C-2.25 1.9375 -2.25 1.9375 0 0 Z " fill="#B7B7B7" transform="translate(219,282)"/>
<path d="M0 0 C-0.66 1.32 -1.32 2.64 -2 4 C-2.66 4 -3.32 4 -4 4 C-4.66 4.66 -5.32 5.32 -6 6 C-6.99 5.67 -7.98 5.34 -9 5 C-6.81610567 0.16423399 -5.20641855 -0.13701101 0 0 Z " fill="#B9B9B9" transform="translate(241,272)"/>
<path d="M0 0 C0.66 0.33 1.32 0.66 2 1 C1.34 1.66 0.68 2.32 0 3 C0.33 3.99 0.66 4.98 1 6 C0.34 6.66 -0.32 7.32 -1 8 C-1.66 7.34 -2.32 6.68 -3 6 C-5.58354218 5.83312552 -5.58354218 5.83312552 -8 6 C-5.63404067 3.38499232 -3.13950774 1.61000397 0 0 Z " fill="#818181" transform="translate(398,176)"/>
<path d="M0 0 C4.30764815 1.56641751 8.06171464 3.68336156 12 6 C9.5332355 6.88336837 8.36140628 7.1312406 5.859375 6.22265625 C5.16328125 5.83980469 4.4671875 5.45695313 3.75 5.0625 C3.04359375 4.68222656 2.3371875 4.30195312 1.609375 3.91015625 C1.07828125 3.60980469 0.5471875 3.30945313 0 3 C0 2.01 0 1.02 0 0 Z " fill="#787878" transform="translate(526,123)"/>
<path d="M0 0 C2.875 0.25 2.875 0.25 6 1 C7.375 3.0625 7.375 3.0625 8 5 C7.01 4.67 6.02 4.34 5 4 C4.67 4.66 4.34 5.32 4 6 C3.34 6 2.68 6 2 6 C1.34 4.02 0.68 2.04 0 0 Z " fill="#A2A2A2" transform="translate(247,423)"/>
<path d="M0 0 C-4.5 3 -4.5 3 -9 6 C-9.33 5.34 -9.66 4.68 -10 4 C-4.75 -1.425 -4.75 -1.425 0 0 Z " fill="#515151" transform="translate(629,507)"/>
<path d="M0 0 C-2.36797991 2.61724095 -4.89600354 4.32861729 -8 6 C-8.66 6 -9.32 6 -10 6 C-9.75 4.125 -9.75 4.125 -9 2 C-6.04454879 -0.11103658 -3.56144099 -0.19785783 0 0 Z " fill="#585858" transform="translate(602,450)"/>
<path d="M0 0 C2.31 0 4.62 0 7 0 C7 0.99 7 1.98 7 3 C7.66 3 8.32 3 9 3 C9.33 3.99 9.66 4.98 10 6 C5.56909529 4.79157144 3.01887244 3.48331435 0 0 Z " fill="#505050" transform="translate(262,794)"/>
<path d="M0 0 C3.6875 1.375 3.6875 1.375 7 3 C7 4.32 7 5.64 7 7 C3.40608886 5.66511872 0.24509304 4.03977277 -3 2 C-2.01 1.34 -1.02 0.68 0 0 Z " fill="#525252" transform="translate(241,779)"/>
<path d="M0 0 C2.91517292 1.07401108 4.77810176 1.77810176 7 4 C4.36 4.33 1.72 4.66 -1 5 C-0.67 3.35 -0.34 1.7 0 0 Z " fill="#6E6E6E" transform="translate(414,521)"/>
<path d="M0 0 C0 0.99 0 1.98 0 3 C-1.53125 4.38671875 -1.53125 4.38671875 -3.5 5.6875 C-4.47453125 6.34298828 -4.47453125 6.34298828 -5.46875 7.01171875 C-5.9740625 7.33785156 -6.479375 7.66398437 -7 8 C-6.875 5.6875 -6.875 5.6875 -6 3 C-2.9375 1.1875 -2.9375 1.1875 0 0 Z " fill="#B0B0B0" transform="translate(208,290)"/>
<path d="M0 0 C-1.65 1.32 -3.3 2.64 -5 4 C-6.32 3.34 -7.64 2.68 -9 2 C-5.73400654 -1.26599346 -4.35266641 -1.03089468 0 0 Z " fill="#2E2F30" transform="translate(722,813)"/>
<path d="M0 0 C2 0 2 0 3.6875 1.25 C4.120625 1.8275 4.55375 2.405 5 3 C4.6875 5.1875 4.6875 5.1875 4 7 C0.83884224 5.63016497 0.0072908 5.0109362 -2 2 C-1.34 2 -0.68 2 0 2 C0 1.34 0 0.68 0 0 Z " fill="#737373" transform="translate(172,736)"/>
<path d="M0 0 C0.99 0.66 1.98 1.32 3 2 C1.5682384 2.69937202 0.12932968 3.38412718 -1.3125 4.0625 C-2.51326172 4.63677734 -2.51326172 4.63677734 -3.73828125 5.22265625 C-6 6 -6 6 -9 5 C-8.34 5 -7.68 5 -7 5 C-7 4.34 -7 3.68 -7 3 C-3.6875 1.375 -3.6875 1.375 0 0 Z " fill="#4F4F4F" transform="translate(525,493)"/>
<path d="M0 0 C3.94120709 0.56302958 6.7508723 1.6791945 10 4 C10 4.66 10 5.32 10 6 C6.40992874 4.66654496 3.20429093 3.1056769 0 1 C0 0.67 0 0.34 0 0 Z " fill="#6E6E6E" transform="translate(354,414)"/>
<path d="M0 0 C3.12290635 0.48578543 5.99580359 0.9986012 9 2 C9.6875 4.0625 9.6875 4.0625 10 6 C6.40992874 4.66654496 3.20429093 3.1056769 0 1 C0 0.67 0 0.34 0 0 Z " fill="#7F7F7F" transform="translate(228,340)"/>
<path d="M0 0 C0.66 0.66 1.32 1.32 2 2 C-2.95 4.475 -2.95 4.475 -8 7 C-7.67 5.68 -7.34 4.36 -7 3 C-3.4375 1.25 -3.4375 1.25 0 0 Z " fill="#4D4D4D" transform="translate(792,335)"/>
<path d="M0 0 C0.66 0 1.32 0 2 0 C2 1.65 2 3.3 2 5 C1.01 5.33 0.02 5.66 -1 6 C-1 7.98 -1 9.96 -1 12 C-1.33 12 -1.66 12 -2 12 C-2.28571429 3.42857143 -2.28571429 3.42857143 0 0 Z " fill="#939393" transform="translate(164,400)"/>
<path d="M0 0 C1.67542976 0.28604898 3.34385343 0.61781233 5 1 C5.33 2.32 5.66 3.64 6 5 C3 5 3 5 0.8125 3 C0.214375 2.34 -0.38375 1.68 -1 1 C-0.67 0.67 -0.34 0.34 0 0 Z " fill="#B6B6B6" transform="translate(193,391)"/>
<path d="M0 0 C0.33 0 0.66 0 1 0 C1.33 1.98 1.66 3.96 2 6 C1.34 6 0.68 6 0 6 C-0.33 6.66 -0.66 7.32 -1 8 C-1.99 8.495 -1.99 8.495 -3 9 C-2.5020163 5.26512223 -2.12508244 3.18762365 0 0 Z " fill="#919191" transform="translate(200,296)"/>
<path d="M0 0 C0.66 0.33 1.32 0.66 2 1 C-1.07999946 4.67230705 -3.2482602 5.56802365 -8 6 C-5.54080489 3.3651481 -3.42227589 1.25483449 0 0 Z " fill="#7F7F7F" transform="translate(312,227)"/>
<path d="M0 0 C2.64 0.66 5.28 1.32 8 2 C8 3.32 8 4.64 8 6 C5.0280615 4.87548273 2.66559313 3.77706209 0 2 C0 1.34 0 0.68 0 0 Z " fill="#434444" transform="translate(428,891)"/>
<path d="M0 0 C2.97 1.65 5.94 3.3 9 5 C5 6 5 6 2.25 4.75 C1.5075 4.1725 0.765 3.595 0 3 C0 2.01 0 1.02 0 0 Z " fill="#606060" transform="translate(395,509)"/>
<path d="M0 0 C1.65 0 3.3 0 5 0 C2.63202009 2.61724095 0.10399646 4.32861729 -3 6 C-3.66 6 -4.32 6 -5 6 C-5 5.34 -5 4.68 -5 4 C-4.01 4 -3.02 4 -2 4 C-2 3.34 -2 2.68 -2 2 C-1.34 2 -0.68 2 0 2 C0 1.34 0 0.68 0 0 Z " fill="#494949" transform="translate(557,474)"/>
<path d="M0 0 C2.475 0.99 2.475 0.99 5 2 C2.82575883 4.50037734 1.26954202 5.43628586 -2 6 C-1.34 4.02 -0.68 2.04 0 0 Z " fill="#5A5A5A" transform="translate(609,441)"/>
<path d="M0 0 C-3.63 1.98 -7.26 3.96 -11 6 C-11 5.01 -11 4.02 -11 3 C-4.5 -1.125 -4.5 -1.125 0 0 Z " fill="#494949" transform="translate(784,343)"/>
<path d="M0 0 C2.86724686 0.57344937 3.8614515 0.8614515 6 3 C6 3.99 6 4.98 6 6 C5.01 6 4.02 6 3 6 C0 2.66666667 0 2.66666667 0 0 Z " fill="#8B8B8B" transform="translate(199,319)"/>
<path d="M0 0 C0.66 0.33 1.32 0.66 2 1 C1.2884375 1.61875 1.2884375 1.61875 0.5625 2.25 C-1.16266518 4.182185 -1.56584875 5.48192275 -2 8 C-3.32 6.68 -4.64 5.36 -6 4 C-4.02 2.68 -2.04 1.36 0 0 Z " fill="#888888" transform="translate(281,245)"/>
<path d="M0 0 C1.98 0 3.96 0 6 0 C0.85714286 4.42857143 0.85714286 4.42857143 -3 5 C-2.67 4.01 -2.34 3.02 -2 2 C-1.34 2 -0.68 2 0 2 C0 1.34 0 0.68 0 0 Z " fill="#2D2D2F" transform="translate(635,861)"/>
<path d="M0 0 C2.86724686 0.57344937 3.8614515 0.8614515 6 3 C1.25 6 1.25 6 -1 6 C-1 5.34 -1 4.68 -1 4 C-0.34 3.67 0.32 3.34 1 3 C0.67 2.01 0.34 1.02 0 0 Z " fill="#2D2F2F" transform="translate(692,825)"/>
<path d="M0 0 C7.57142857 1.85714286 7.57142857 1.85714286 10 5 C9.01 5.495 9.01 5.495 8 6 C6.0546875 5.0390625 6.0546875 5.0390625 3.875 3.625 C3.15054687 3.16351563 2.42609375 2.70203125 1.6796875 2.2265625 C1.12539063 1.82179688 0.57109375 1.41703125 0 1 C0 0.67 0 0.34 0 0 Z " fill="#5F5F5F" transform="translate(325,397)"/>
<path d="M0 0 C0.66 0.33 1.32 0.66 2 1 C0 4 0 4 -3 6 C-3.99 6 -4.98 6 -6 6 C-5 3 -5 3 -2.5625 1.25 C-1.716875 0.8375 -0.87125 0.425 0 0 Z " fill="#818181" transform="translate(369,193)"/>
<path d="M0 0 C3.375 0.25 3.375 0.25 7 1 C8.4375 3.0625 8.4375 3.0625 9 5 C5.54074837 3.7508258 2.85306797 2.32472205 0 0 Z " fill="#3C3D3D" transform="translate(400,876)"/>
<path d="M0 0 C-4.75 3 -4.75 3 -7 3 C-7.33 1.68 -7.66 0.36 -8 -1 C-3.375 -2.25 -3.375 -2.25 0 0 Z " fill="#2B2C2D" transform="translate(781,779)"/>
<path d="M0 0 C1 3 1 3 1 6 C0.01 6 -0.98 6 -2 6 C-2.66 5.34 -3.32 4.68 -4 4 C-4 3.01 -4 2.02 -4 1 C-2 0 -2 0 0 0 Z " fill="#737373" transform="translate(415,444)"/>
<path d="M0 0 C0.8971875 0.309375 0.8971875 0.309375 1.8125 0.625 C-1.5215947 2.81597652 -4.22929141 4.05954163 -8.1875 4.625 C-3.2421875 -0.55580357 -3.2421875 -0.55580357 0 0 Z " fill="#3F3F3F" transform="translate(739.1875,439.375)"/>
<path d="M0 0 C0.33 0.99 0.66 1.98 1 3 C-0.98 3.66 -2.96 4.32 -5 5 C-5.66 4.34 -6.32 3.68 -7 3 C-2.25 0 -2.25 0 0 0 Z " fill="#3F3F3F" transform="translate(763,425)"/>
<path d="M0 0 C3.73487777 0.4979837 5.81237635 0.87491756 9 3 C9 3.66 9 4.32 9 5 C5.22454612 3.90931332 2.52956528 3.0916909 0 0 Z " fill="#747474" transform="translate(306,386)"/>
<path d="M0 0 C0.66 0.99 1.32 1.98 2 3 C-2.75 6 -2.75 6 -5 6 C-5 5.01 -5 4.02 -5 3 C-2.5 1.3125 -2.5 1.3125 0 0 Z " fill="#565656" transform="translate(708,384)"/>
<path d="M0 0 C2 1 2 1 3 3 C2.34 3 1.68 3 1 3 C0.67 3.66 0.34 4.32 0 5 C-1.65 4.67 -3.3 4.34 -5 4 C-3.36587557 2.29159719 -2.13093906 1.06546953 0 0 Z " fill="#8D8D8D" transform="translate(268,253)"/>
<path d="M0 0 C0.6875 1.8125 0.6875 1.8125 1 4 C-0.4375 5.75 -0.4375 5.75 -2 7 C-2.66 6.34 -3.32 5.68 -4 5 C-2.25 1.125 -2.25 1.125 0 0 Z " fill="#CBCBCB" transform="translate(306,232)"/>
<path d="M0 0 C0 0.99 0 1.98 0 3 C-1.98 3.99 -1.98 3.99 -4 5 C-4.99 4.34 -5.98 3.68 -7 3 C-2.25 0 -2.25 0 0 0 Z " fill="#919191" transform="translate(326,220)"/>
<path d="M0 0 C1.32 0.66 2.64 1.32 4 2 C2.02 3.32 0.04 4.64 -2 6 C-2.66 5.67 -3.32 5.34 -4 5 C-2 2 -2 2 0 0 Z " fill="#282A28" transform="translate(731,804)"/>
<path d="M0 0 C1.32 0 2.64 0 4 0 C4 0.66 4 1.32 4 2 C5.65 2 7.3 2 9 2 C9 2.99 9 3.98 9 5 C5.22454612 3.90931332 2.52956528 3.0916909 0 0 Z " fill="#4A4A4A" transform="translate(275,802)"/>
<path d="M0 0 C0.66 0.33 1.32 0.66 2 1 C2.625 3.0625 2.625 3.0625 3 5 C2.01 5 1.02 5 0 5 C-0.33 5.66 -0.66 6.32 -1 7 C-1.625 4.625 -1.625 4.625 -2 2 C-1.34 1.34 -0.68 0.68 0 0 Z " fill="#5E605F" transform="translate(645,495)"/>
<path d="M0 0 C2.6875 -0.3125 2.6875 -0.3125 5 0 C2.64722731 2.72426311 0.37503669 3.8141763 -3 5 C-1.8125 2.5 -1.8125 2.5 0 0 Z " fill="#505050" transform="translate(634,428)"/>
<path d="M0 0 C3.37503669 1.1858237 5.64722731 2.27573689 8 5 C5.69 5 3.38 5 1 5 C0.67 3.35 0.34 1.7 0 0 Z " fill="#575757" transform="translate(720,238)"/>
<path d="M0 0 C2.125 0.9375 2.125 0.9375 4 2 C4 2.66 4 3.32 4 4 C4.99 4 5.98 4 7 4 C7 4.66 7 5.32 7 6 C3.54074837 4.7508258 0.85306797 3.32472205 -2 1 C-1.34 0.67 -0.68 0.34 0 0 Z " fill="#3F4040" transform="translate(392,869)"/>
<path d="M0 0 C1.65 0.33 3.3 0.66 5 1 C2.94766315 3.2477975 1.99332739 4.0022242 -1 5 C-0.67 3.35 -0.34 1.7 0 0 Z " fill="#292A2B" transform="translate(829,745)"/>
<path d="M0 0 C0.66 0 1.32 0 2 0 C1.67 1.98 1.34 3.96 1 6 C1.66 6.33 2.32 6.66 3 7 C2.01 7 1.02 7 0 7 C-0.66 5.35 -1.32 3.7 -2 2 C-1.34 1.34 -0.68 0.68 0 0 Z " fill="#707070" transform="translate(168,730)"/>
<path d="M0 0 C2.625 0.9375 2.625 0.9375 5 2 C4.01 2.99 3.02 3.98 2 5 C1.01 4.67 0.02 4.34 -1 4 C-1.33 3.01 -1.66 2.02 -2 1 C-1.34 0.67 -0.68 0.34 0 0 Z " fill="#5B5B5B" transform="translate(562,469)"/>
<path d="M0 0 C1.32 0 2.64 0 4 0 C3.67 1.32 3.34 2.64 3 4 C1 4 1 4 -2 3 C-1.34 2.01 -0.68 1.02 0 0 Z " fill="#4F4F4F" transform="translate(717,451)"/>
<path d="M0 0 C1.65 0 3.3 0 5 0 C5 0.66 5 1.32 5 2 C5.66 2 6.32 2 7 2 C7.33 2.99 7.66 3.98 8 5 C4.62496331 3.8141763 2.35277269 2.72426311 0 0 Z " fill="#7C7C7C" transform="translate(218,334)"/>
<path d="M0 0 C-1.75 3.875 -1.75 3.875 -4 5 C-4.99 4.34 -5.98 3.68 -7 3 C-2.25 0 -2.25 0 0 0 Z " fill="#909090" transform="translate(228,278)"/>
<path d="M0 0 C3.37503669 1.1858237 5.64722731 2.27573689 8 5 C6.68 5 5.36 5 4 5 C4 4.34 4 3.68 4 3 C2.35 2.67 0.7 2.34 -1 2 C-0.67 1.34 -0.34 0.68 0 0 Z " fill="#6A6A6A" transform="translate(550,137)"/>
<path d="M0 0 C2.97 0.495 2.97 0.495 6 1 C4.35 2.65 2.7 4.3 1 6 C0.4465236 3.92446352 0 2.15634036 0 0 Z " fill="#AEAEAE" transform="translate(532,129)"/>
</svg>
